<svg width="12" height="12" viewBox="0 0 12 12" fill="none" xmlns="http://www.w3.org/2000/svg">
<path d="M3 10.5C3.13261 10.5 3.25979 10.4473 3.35355 10.3536C3.44732 10.2598 3.5 10.1326 3.5 10C3.5 9.86739 3.44732 9.74021 3.35355 9.64645C3.25979 9.55268 3.13261 9.5 3 9.5C2.86739 9.5 2.74021 9.44732 2.64645 9.35355C2.55268 9.25979 2.5 9.13261 2.5 9V3C2.5 2.86739 2.55268 2.74021 2.64645 2.64645C2.74021 2.55268 2.86739 2.5 3 2.5C3.13261 2.5 3.25979 2.44732 3.35355 2.35355C3.44732 2.25979 3.5 2.13261 3.5 2C3.5 1.86739 3.44732 1.74021 3.35355 1.64645C3.25979 1.55268 3.13261 1.5 3 1.5C2.60218 1.5 2.22064 1.65804 1.93934 1.93934C1.65804 2.22064 1.5 2.60218 1.5 3V9C1.5 9.39782 1.65804 9.77936 1.93934 10.0607C2.22064 10.342 2.60218 10.5 3 10.5ZM6.5 2.5C6.63261 2.5 6.75979 2.44732 6.85355 2.35355C6.94732 2.25979 7 2.13261 7 2C7 1.86739 6.94732 1.74021 6.85355 1.64645C6.75979 1.55268 6.63261 1.5 6.5 1.5H5.5C5.36739 1.5 5.24021 1.55268 5.14645 1.64645C5.05268 1.74021 5 1.86739 5 2C5 2.13261 5.05268 2.25979 5.14645 2.35355C5.24021 2.44732 5.36739 2.5 5.5 2.5H6.5ZM9.5 5.5C9.5 5.36739 9.55268 5.24021 9.64645 5.14645C9.74021 5.05268 9.86739 5 10 5C10.1326 5 10.2598 5.05268 10.3536 5.14645C10.4473 5.24021 10.5 5.36739 10.5 5.5V6.5C10.5 6.63261 10.4473 6.75979 10.3536 6.85355C10.2598 6.94732 10.1326 7 10 7C9.86739 7 9.74021 6.94732 9.64645 6.85355C9.55268 6.75979 9.5 6.63261 9.5 6.5V5.5ZM7 10C7 10.1326 6.94732 10.2598 6.85355 10.3536C6.75979 10.4473 6.63261 10.5 6.5 10.5H5.5C5.36739 10.5 5.24021 10.4473 5.14645 10.3536C5.05268 10.2598 5 10.1326 5 10C5 9.86739 5.05268 9.74021 5.14645 9.64645C5.24021 9.55268 5.36739 9.5 5.5 9.5H6.5C6.63261 9.5 6.75979 9.55268 6.85355 9.64645C6.94732 9.74021 7 9.86739 7 10ZM9 1.5C8.86739 1.5 8.74021 1.55268 8.64645 1.64645C8.55268 1.74021 8.5 1.86739 8.5 2C8.5 2.13261 8.55268 2.25979 8.64645 2.35355C8.74021 2.44732 8.86739 2.5 9 2.5C9.13261 2.5 9.25979 2.55268 9.35355 2.64645C9.44732 2.74021 9.5 2.86739 9.5 3C9.5 3.13261 9.55268 3.25979 9.64645 3.35355C9.74021 3.44732 9.86739 3.5 10 3.5C10.1326 3.5 10.2598 3.44732 10.3536 3.35355C10.4473 3.25979 10.5 3.13261 10.5 3C10.5 2.60218 10.342 2.22064 10.0607 1.93934C9.77936 1.65804 9.39782 1.5 9 1.5ZM8.5 10C8.5 10.1326 8.55268 10.2598 8.64645 10.3536C8.74021 10.4473 8.86739 10.5 9 10.5C9.39782 10.5 9.77936 10.342 10.0607 10.0607C10.342 9.77936 10.5 9.39782 10.5 9C10.5 8.86739 10.4473 8.74021 10.3536 8.64645C10.2598 8.55268 10.1326 8.5 10 8.5C9.86739 8.5 9.74021 8.55268 9.64645 8.64645C9.55268 8.74021 9.5 8.86739 9.5 9C9.5 9.13261 9.44732 9.25979 9.35355 9.35355C9.25979 9.44732 9.13261 9.5 9 9.5C8.86739 9.5 8.74021 9.55268 8.64645 9.64645C8.55268 9.74021 8.5 9.86739 8.5 10Z" fill="#CBD5E1"/>
</svg>
