<svg width="12" height="12" viewBox="0 0 12 12" fill="none" xmlns="http://www.w3.org/2000/svg">
<path d="M10.5 1.5H1.5C1.30109 1.5 1.11032 1.57902 0.96967 1.71967C0.829018 1.86032 0.75 2.05109 0.75 2.25V8.25C0.75 8.44891 0.829018 8.63968 0.96967 8.78033C1.11032 8.92098 1.30109 9 1.5 9H4.5V10.5H3V11.25H9V10.5H7.5V9H10.5C10.6989 9 10.8897 8.92098 11.0303 8.78033C11.171 8.63968 11.25 8.44891 11.25 8.25V2.25C11.25 2.05109 11.171 1.86032 11.0303 1.71967C10.8897 1.57902 10.6989 1.5 10.5 1.5V1.5ZM6.75 10.5H5.25V9H6.75V10.5ZM10.5 8.25H1.5V2.25H10.5V8.25Z" fill="#CBD5E1"/>
</svg>
