<svg width="12" height="12" viewBox="0 0 12 12" fill="none" xmlns="http://www.w3.org/2000/svg">
<path d="M3.75 5.25C4.16421 5.25 4.5 4.91421 4.5 4.5C4.5 4.08579 4.16421 3.75 3.75 3.75C3.33579 3.75 3 4.08579 3 4.5C3 4.91421 3.33579 5.25 3.75 5.25Z" fill="#CBD5E1"/>
<path d="M6 4.125C6.41421 4.125 6.75 3.78921 6.75 3.375C6.75 2.96079 6.41421 2.625 6 2.625C5.58579 2.625 5.25 2.96079 5.25 3.375C5.25 3.78921 5.58579 4.125 6 4.125Z" fill="#CBD5E1"/>
<path d="M8.25 5.25C8.66421 5.25 9 4.91421 9 4.5C9 4.08579 8.66421 3.75 8.25 3.75C7.83579 3.75 7.5 4.08579 7.5 4.5C7.5 4.91421 7.83579 5.25 8.25 5.25Z" fill="#CBD5E1"/>
<path d="M8.625 7.5C9.03921 7.5 9.375 7.16421 9.375 6.75C9.375 6.33579 9.03921 6 8.625 6C8.21079 6 7.875 6.33579 7.875 6.75C7.875 7.16421 8.21079 7.5 8.625 7.5Z" fill="#CBD5E1"/>
<path d="M7.125 9.375C7.53921 9.375 7.875 9.03921 7.875 8.625C7.875 8.21079 7.53921 7.875 7.125 7.875C6.71079 7.875 6.375 8.21079 6.375 8.625C6.375 9.03921 6.71079 9.375 7.125 9.375Z" fill="#CBD5E1"/>
<path d="M6.2025 0.750001C5.49621 0.722738 4.79169 0.838374 4.13117 1.08998C3.47065 1.34158 2.86774 1.72397 2.35858 2.21422C1.84942 2.70447 1.4445 3.29249 1.16809 3.94301C0.89168 4.59354 0.749475 5.29319 0.750001 6C0.749983 6.278 0.814088 6.55225 0.937331 6.80144C1.06057 7.05062 1.23963 7.26802 1.46059 7.43673C1.68154 7.60543 1.93843 7.7209 2.21128 7.77415C2.48412 7.8274 2.76558 7.817 3.03375 7.74375L3.45375 7.6275C3.62083 7.58189 3.79618 7.57548 3.96615 7.60875C4.13611 7.64203 4.2961 7.7141 4.43365 7.81934C4.57119 7.92459 4.68258 8.06017 4.75914 8.21552C4.83569 8.37088 4.87534 8.54181 4.875 8.715V10.125C4.875 10.4234 4.99353 10.7095 5.20451 10.9205C5.41549 11.1315 5.70163 11.25 6 11.25C6.70682 11.2505 7.40646 11.1083 8.05699 10.8319C8.70752 10.5555 9.29553 10.1506 9.78578 9.64142C10.276 9.13226 10.6584 8.52935 10.91 7.86883C11.1616 7.20831 11.2773 6.50379 11.25 5.7975C11.1956 4.47625 10.6463 3.22378 9.71128 2.28872C8.77623 1.35367 7.52375 0.804411 6.2025 0.750001V0.750001ZM9.24375 9.11625C8.82504 9.55464 8.32159 9.90336 7.76398 10.1412C7.20637 10.3791 6.60623 10.5012 6 10.5C5.90055 10.5 5.80516 10.4605 5.73484 10.3902C5.66451 10.3198 5.625 10.2245 5.625 10.125V8.715C5.625 8.21772 5.42746 7.74081 5.07583 7.38918C4.7242 7.03755 4.24728 6.84 3.75 6.84C3.5815 6.8403 3.41378 6.863 3.25125 6.9075L2.83125 7.02375C2.67438 7.06579 2.50994 7.07114 2.35067 7.03938C2.1914 7.00761 2.04158 6.93959 1.91284 6.84059C1.7841 6.74158 1.6799 6.61426 1.6083 6.46849C1.53671 6.32271 1.49965 6.16241 1.5 6C1.49954 5.39393 1.62151 4.794 1.85859 4.23622C2.09568 3.67844 2.443 3.1743 2.87971 2.75405C3.31642 2.3338 3.83353 2.00609 4.4 1.7906C4.96647 1.57511 5.57064 1.47626 6.17625 1.5C7.30395 1.55873 8.36991 2.03313 9.1684 2.83161C9.96688 3.63009 10.4413 4.69606 10.5 5.82375C10.5258 6.42974 10.4277 7.03462 10.2117 7.60139C9.99571 8.16817 9.66634 8.68491 9.24375 9.12V9.11625Z" fill="#CBD5E1"/>
</svg>
