<svg width="12" height="12" viewBox="0 0 12 12" fill="none" xmlns="http://www.w3.org/2000/svg">
<path d="M10 3.207V5C10 5.13261 9.94732 5.25979 9.85355 5.35356C9.75979 5.44732 9.63261 5.5 9.5 5.5C9.36739 5.5 9.24022 5.44732 9.14645 5.35356C9.05268 5.25979 9 5.13261 9 5V3.207L8.8535 3.3535C8.80738 3.40126 8.75221 3.43935 8.6912 3.46555C8.6302 3.49176 8.56459 3.50555 8.4982 3.50613C8.43181 3.50671 8.36597 3.49405 8.30452 3.46891C8.24308 3.44377 8.18725 3.40665 8.1403 3.3597C8.09336 3.31275 8.05623 3.25693 8.03109 3.19548C8.00595 3.13403 7.9933 3.06819 7.99388 3.0018C7.99445 2.93541 8.00825 2.8698 8.03445 2.8088C8.06065 2.7478 8.09875 2.69263 8.1465 2.6465L9.1465 1.6465C9.19286 1.59997 9.24795 1.56305 9.30861 1.53786C9.36928 1.51266 9.43432 1.49969 9.5 1.49969C9.56569 1.49969 9.63073 1.51266 9.69139 1.53786C9.75205 1.56305 9.80714 1.59997 9.8535 1.6465L10.8535 2.6465C10.9446 2.7408 10.995 2.86711 10.9938 2.9982C10.9927 3.1293 10.9401 3.25471 10.8474 3.34741C10.7547 3.44012 10.6293 3.4927 10.4982 3.49384C10.3671 3.49498 10.2408 3.44458 10.1465 3.3535L10 3.207ZM1 3C1 2.8674 1.05268 2.74022 1.14645 2.64645C1.24021 2.55268 1.36739 2.5 1.5 2.5H5.5C5.63261 2.5 5.75979 2.55268 5.85355 2.64645C5.94732 2.74022 6 2.8674 6 3C6 3.13261 5.94732 3.25979 5.85355 3.35356C5.75979 3.44732 5.63261 3.5 5.5 3.5H1.5C1.36739 3.5 1.24021 3.44732 1.14645 3.35356C1.05268 3.25979 1 3.13261 1 3V3ZM1 6C1 5.8674 1.05268 5.74022 1.14645 5.64645C1.24021 5.55268 1.36739 5.5 1.5 5.5H7C7.13261 5.5 7.25979 5.55268 7.35355 5.64645C7.44732 5.74022 7.5 5.8674 7.5 6C7.5 6.13261 7.44732 6.25979 7.35355 6.35356C7.25979 6.44732 7.13261 6.5 7 6.5H1.5C1.36739 6.5 1.24021 6.44732 1.14645 6.35356C1.05268 6.25979 1 6.13261 1 6V6ZM1.5 8.5C1.36739 8.5 1.24021 8.55268 1.14645 8.64645C1.05268 8.74022 1 8.8674 1 9C1 9.13261 1.05268 9.25979 1.14645 9.35356C1.24021 9.44733 1.36739 9.5 1.5 9.5H5.5C5.63261 9.5 5.75979 9.44733 5.85355 9.35356C5.94732 9.25979 6 9.13261 6 9C6 8.8674 5.94732 8.74022 5.85355 8.64645C5.75979 8.55268 5.63261 8.5 5.5 8.5H1.5ZM10 7V8.793L10.1465 8.6465C10.2408 8.55542 10.3671 8.50503 10.4982 8.50617C10.6293 8.50731 10.7547 8.55989 10.8474 8.65259C10.9401 8.7453 10.9927 8.8707 10.9938 9.0018C10.995 9.1329 10.9446 9.2592 10.8535 9.3535L9.8535 10.3535C9.75974 10.4472 9.63258 10.4999 9.5 10.4999C9.36742 10.4999 9.24026 10.4472 9.1465 10.3535L8.1465 9.3535C8.05542 9.2592 8.00502 9.1329 8.00616 9.0018C8.0073 8.8707 8.05989 8.7453 8.15259 8.65259C8.2453 8.55989 8.3707 8.50731 8.5018 8.50617C8.6329 8.50503 8.7592 8.55542 8.8535 8.6465L9 8.793V7C9 6.8674 9.05268 6.74022 9.14645 6.64645C9.24022 6.55268 9.36739 6.5 9.5 6.5C9.63261 6.5 9.75979 6.55268 9.85355 6.64645C9.94732 6.74022 10 6.8674 10 7V7Z" fill="#CBD5E1"/>
</svg>
