<svg width="10" height="10" viewBox="0 0 10 10" fill="none" xmlns="http://www.w3.org/2000/svg">
<g clip-path="url(#clip0_229_261)">
<path fill-rule="evenodd" clip-rule="evenodd" d="M3.88124 5.3125L2.85874 2.24625L1.78562 5.3125H3.88124ZM4.19374 6.25L4.71187 7.80437C4.75236 7.92077 4.83707 8.01654 4.94765 8.07095C5.05824 8.12536 5.1858 8.13403 5.30273 8.09508C5.41966 8.05613 5.51654 7.9727 5.57241 7.86285C5.62828 7.75299 5.63864 7.62555 5.60124 7.50812L3.58437 1.4575C3.53438 1.30692 3.43852 1.17577 3.31024 1.08242C3.18195 0.989074 3.02767 0.938214 2.86902 0.936974C2.71037 0.935733 2.55531 0.984174 2.42558 1.0755C2.29585 1.16683 2.19795 1.29647 2.14562 1.44625L0.0268661 7.50125C-0.0102716 7.61751 -0.000597978 7.74367 0.0538303 7.85292C0.108259 7.96216 0.203149 8.04586 0.318328 8.08624C0.433508 8.12661 0.559893 8.12047 0.670615 8.06912C0.781336 8.01776 0.867662 7.92525 0.911241 7.81125L1.45749 6.25H4.19374ZM6.14999 3.52625C6.58124 2.73375 7.41874 2.5 8.12499 2.5C9.06249 2.5 9.99999 3.08687 9.99999 4.12562V7.65625C10.0001 7.76546 9.96203 7.87127 9.89242 7.95542C9.8228 8.03956 9.72599 8.09676 9.6187 8.11714C9.51141 8.13752 9.40037 8.11979 9.30475 8.06702C9.20914 8.01426 9.13495 7.92976 9.09499 7.82812C8.74687 8.0125 8.31249 8.125 7.81249 8.125C7.33124 8.125 6.86624 7.98062 6.51374 7.68187C6.15312 7.37687 5.93749 6.9325 5.93749 6.40625C5.93749 5.9725 6.10312 5.52437 6.49187 5.19125C6.87499 4.8625 7.42499 4.6875 8.12499 4.6875H9.06249V4.12562C9.06249 3.78812 8.74999 3.4375 8.12499 3.4375C7.58187 3.4375 7.16999 3.61375 6.97499 3.97375C6.91565 4.08315 6.81528 4.1645 6.69596 4.19989C6.57664 4.23529 6.44814 4.22184 6.33874 4.1625C6.22934 4.10315 6.14799 4.00278 6.11259 3.88346C6.0772 3.76414 6.09065 3.63565 6.14999 3.52625V3.52625ZM9.06249 5.625H8.12499C7.57437 5.625 7.26562 5.7625 7.10187 5.9025C6.94374 6.03812 6.87499 6.215 6.87499 6.40625C6.87499 6.66125 6.97187 6.84187 7.11874 6.96625C7.27437 7.0975 7.51249 7.1875 7.81249 7.1875C8.26999 7.1875 8.59999 7.05687 8.80499 6.90687C9.02374 6.74625 9.06249 6.5975 9.06249 6.5625V5.625V5.625Z" fill="#CBD5E1"/>
</g>
<defs>
<clipPath id="clip0_229_261">
<rect width="10" height="10" fill="white"/>
</clipPath>
</defs>
</svg>
